<svg width="24" height="24" viewBox="0 0 24 24" fill="none" xmlns="http://www.w3.org/2000/svg">
<path d="M14.13 11.34C14.52 9.70002 13.09 8.26997 11.45 8.65997C10.68 8.84997 10.05 9.47999 9.85998 10.25C9.46998 11.89 10.9 13.32 12.54 12.93C13.32 12.74 13.95 12.11 14.13 11.34Z" stroke="#ACACAC" stroke-width="1.2" stroke-linecap="round" stroke-linejoin="round"/>
<path d="M18.01 17.19C19.72 15.59 20.79 13.32 20.79 10.79C20.79 5.92998 16.85 2 12 2C7.15002 2 3.21002 5.93998 3.21002 10.79C3.21002 13.33 4.29002 15.62 6.02002 17.22" stroke="#ACACAC" stroke-width="1.2" stroke-linecap="round" stroke-linejoin="round"/>
<path d="M8.00002 14.55C7.08002 13.57 6.51001 12.25 6.51001 10.79C6.51001 7.75998 8.97002 5.29999 12 5.29999C15.03 5.29999 17.49 7.75998 17.49 10.79C17.49 12.25 16.92 13.56 16 14.55" stroke="#ACACAC" stroke-width="1.2" stroke-linecap="round" stroke-linejoin="round"/>
<path d="M10.3 16.66L8.85998 18.45C7.71998 19.88 8.72997 21.99 10.56 21.99H13.43C15.26 21.99 16.28 19.87 15.13 18.45L13.69 16.66C12.83 15.57 11.17 15.57 10.3 16.66Z" stroke="#ACACAC" stroke-width="1.2" stroke-linecap="round" stroke-linejoin="round"/>
</svg>
