<svg width="20" height="20" viewBox="0 0 20 20" fill="none" xmlns="http://www.w3.org/2000/svg">
<path d="M10.4417 17.0166H5.17502C2.54169 17.0166 1.66669 15.2666 1.66669 13.5083V6.49161C1.66669 3.85828 2.54169 2.98328 5.17502 2.98328H10.4417C13.075 2.98328 13.95 3.85828 13.95 6.49161V13.5083C13.95 16.1416 13.0667 17.0166 10.4417 17.0166Z" stroke="#F77324" stroke-width="1.2" stroke-linecap="round" stroke-linejoin="round"/>
<path d="M16.2667 14.2501L13.95 12.6251V7.36678L16.2667 5.74178C17.4 4.95011 18.3333 5.43344 18.3333 6.82511V13.1751C18.3333 14.5668 17.4 15.0501 16.2667 14.2501Z" stroke="#F77324" stroke-width="1.2" stroke-linecap="round" stroke-linejoin="round"/>
<path d="M9.58331 9.16675C10.2737 9.16675 10.8333 8.6071 10.8333 7.91675C10.8333 7.22639 10.2737 6.66675 9.58331 6.66675C8.89296 6.66675 8.33331 7.22639 8.33331 7.91675C8.33331 8.6071 8.89296 9.16675 9.58331 9.16675Z" stroke="#F77324" stroke-width="1.2" stroke-linecap="round" stroke-linejoin="round"/>
</svg>
