<svg width="17" height="17" viewBox="0 0 17 17" fill="none" xmlns="http://www.w3.org/2000/svg">
<path fill-rule="evenodd" clip-rule="evenodd" d="M8.09255 0L10.1074 1.31377L12.5127 1.29787L13.4974 3.49241L15.5295 4.77943L15.1714 7.15798L16.1851 9.3393L14.598 11.1467L14.2714 13.5298L11.959 14.1921L10.3959 16.0204L8.09255 15.3275L5.78917 16.0204L4.22606 14.1921L1.91372 13.5298L1.58715 11.1467L0 9.3393L1.01366 7.15798L0.65561 4.77943L2.68766 3.49241L3.6724 1.29787L6.07769 1.31377L8.09255 0ZM10.233 5.7536L7.01385 9.17143L5.95272 8.0448C5.70505 7.78184 5.29111 7.76945 5.02815 8.01712C4.7652 8.26478 4.7528 8.67873 5.00047 8.94168L6.53773 10.5738C6.79594 10.848 7.23176 10.848 7.48998 10.5738L11.1852 6.65049C11.4329 6.38753 11.4205 5.97359 11.1575 5.72592C10.8946 5.47825 10.4806 5.49065 10.233 5.7536Z" fill="#3897F0"/>
</svg>
